<svg width="65" height="72" viewBox="0 0 65 72" fill="none" xmlns="http://www.w3.org/2000/svg">
<path d="M32.4252 71.7099C27.6634 71.7099 22.8984 71.7199 18.1367 71.7066C16.0318 71.6999 15.7126 71.3907 15.7093 69.3024C15.6993 65.924 15.7292 62.5456 15.7326 59.1672C15.7326 58.5587 15.7592 57.9369 15.6528 57.345C15.5031 56.497 15.1839 55.7522 14.1099 55.6957C13.1023 55.6425 12.5503 56.1412 12.2777 57.0324C11.5262 59.4931 11.5927 62.0668 11.2735 64.584C11.1138 65.8442 11.0739 67.1211 10.8778 68.378C10.6051 70.1204 9.12537 71.2244 7.38628 70.9085C5.53746 70.5727 3.71857 70.0805 1.8897 69.6316C0.572915 69.3091 -0.0688519 68.5077 0.084108 67.0978C0.679322 61.548 0.892135 55.9251 1.90633 50.4551C4.00454 39.1427 14.1298 33.7393 22.24 33.5763C23.4005 33.553 24.3748 33.8822 25.3258 34.5539C29.7816 37.6996 35.5575 37.7229 39.9102 34.524C41.4764 33.3735 43.1589 33.4766 44.8382 33.6561C54.6343 34.7202 62.4352 42.6342 63.4394 52.4602C63.9282 57.2452 64.3505 62.0402 64.9059 66.8185C65.0887 68.3847 64.5467 69.2559 63.0969 69.6782C61.1284 70.2501 59.1433 70.7822 57.1049 70.985C55.01 71.1912 54.212 70.5926 53.9559 68.521C53.5602 65.3388 53.2809 62.1432 52.9816 58.951C52.9018 58.1131 52.7389 57.3117 52.3897 56.5469C52.0672 55.8386 51.4919 55.6159 50.7571 55.7023C49.9823 55.7921 49.5567 56.2476 49.4802 56.9991C49.4137 57.6575 49.3871 58.3259 49.3937 58.9876C49.4137 62.366 49.4769 65.7445 49.4669 69.1229C49.4602 71.138 48.885 71.6833 46.8832 71.6899C42.0649 71.7066 37.2467 71.6966 32.4285 71.6966C32.4252 71.6999 32.4252 71.7032 32.4252 71.7099Z" fill="#BD0000"/>
<path d="M49.1843 16.2453C49.161 26.5003 39.1255 34.012 28.7874 31.6643C21.3688 29.9785 15.8024 23.5076 15.716 16.4615C15.6229 9.08614 20.4311 2.91454 27.6535 1.31843C34.9058 -0.28432 41.2935 1.14552 46.1583 7.13756C48.323 9.80771 49.3572 12.9234 49.1843 16.2453Z" fill="#BD0000"/>
</svg>
