<svg width="71" height="69" viewBox="0 0 71 69" fill="none" xmlns="http://www.w3.org/2000/svg">
<path d="M0.241906 29.57C0.241906 21.9087 0.23529 14.2507 0.245214 6.58946C0.248522 2.37179 2.58065 0.00989361 6.75201 0.00658564C18.2142 -3.03185e-05 29.6763 -0.0033383 41.1384 0.00658564C45.1576 0.00989361 47.3707 2.21301 47.4203 6.21897C47.4732 10.3473 47.5526 14.4724 47.546 18.6007C47.546 19.6097 48.1315 20.0926 48.7898 20.5888C51.2079 22.4148 53.636 24.2276 56.0574 26.047C60.7382 29.5601 60.9334 33.6454 56.6099 37.6117C56.3651 37.8333 56.1335 38.0814 55.8556 38.2534C54.6482 38.9944 54.7574 39.6659 55.8358 40.4764C59.8451 43.4866 63.8312 46.5234 67.8107 49.5733C70.5133 51.6474 71.3932 54.3633 70.3148 57.1089C68.7766 61.0222 64.2877 62.5307 60.7845 60.0596C57.4137 57.6812 54.2645 54.9918 51.0227 52.4314C50.2453 51.8161 49.501 51.1612 48.7203 50.5459C48.4325 50.3176 48.1315 49.9438 47.7114 50.1688C47.2979 50.3871 47.4335 50.8535 47.4302 51.2207C47.4004 54.3567 47.3872 57.4926 47.3641 60.6253C47.3574 61.4688 47.5162 62.2429 47.9694 62.9839C48.5252 63.8936 48.7369 64.9223 48.6939 65.9941C48.6178 67.9392 47.8966 68.7034 45.9482 68.7034C35.7001 68.7199 25.4487 68.7199 15.2006 68.7001C13.3812 68.6967 12.8685 68.1112 12.7758 66.3249C12.7064 65.015 13.1496 63.8472 13.5896 62.6498C14.3273 60.6551 13.8741 60.0398 11.8033 59.9835C10.2618 59.9438 8.72356 59.8347 7.18204 59.795C2.75597 59.6825 0.271678 57.185 0.255138 52.7126C0.238598 44.9984 0.255138 37.2842 0.255138 29.57C0.25183 29.57 0.245214 29.57 0.241906 29.57ZM30.6654 62.0775C30.6654 62.0709 30.6654 62.0643 30.6654 62.0576C34.2975 62.0576 37.9297 62.0179 41.5586 62.0808C42.627 62.1006 42.9347 61.7368 42.8255 60.7344C42.713 59.699 42.5906 58.6438 42.6601 57.6084C42.766 56.0305 42.0316 55.6534 40.5992 55.6501C34.8268 55.6402 29.0544 55.531 23.2853 55.488C17.9032 55.4483 18.6177 55.2399 18.5383 60.7179C18.5218 61.7996 19.0709 62.1039 20.103 62.0907C23.626 62.0477 27.1457 62.0775 30.6654 62.0775ZM23.8509 15.6434C23.8509 15.6401 23.8509 15.6335 23.8509 15.6302C27.6551 15.6302 31.4593 15.6632 35.2602 15.6202C37.8668 15.5905 38.8758 14.9983 38.8758 13.6785C38.8725 12.084 37.5956 11.1909 35.0683 11.1809C27.407 11.1512 19.7424 11.1545 12.0812 11.171C10.1162 11.1743 9.06428 12.0245 9.05436 13.4734C9.04444 14.9024 9.92105 15.6136 11.9455 15.6335C15.9118 15.6699 19.8814 15.6434 23.8509 15.6434ZM42.5146 45.5541C43.0968 45.5508 43.2489 45.1572 43.4441 44.8396C44.8731 42.481 46.3518 40.1555 48.2043 38.1013C49.0346 37.1816 48.899 36.5035 47.9463 35.7956C45.7332 34.1581 43.5235 32.5075 41.3601 30.8039C40.5198 30.1423 40.0038 30.4135 39.4481 31.1313C37.8668 33.1823 36.2989 35.2432 34.6548 37.2445C33.937 38.1178 33.9667 38.7232 34.8566 39.4311C37.1788 41.2901 39.458 43.2022 41.7636 45.0844C42.0084 45.2895 42.3095 45.4284 42.5146 45.5541ZM19.1536 21.6871C19.1536 21.6771 19.1536 21.6705 19.1536 21.6606C16.5635 21.6606 13.9733 21.6474 11.3865 21.6672C10.0534 21.6771 9.11721 22.2627 9.07421 23.695C9.0312 25.1241 9.93097 25.8386 11.2608 25.8452C16.4378 25.875 21.6181 25.8783 26.795 25.8022C28.0686 25.7823 29.286 25.2398 29.2628 23.6917C29.2396 22.1601 28.1282 21.6871 26.7587 21.6871C24.2214 21.6871 21.6875 21.6871 19.1536 21.6871ZM64.1057 56.6557C65.6009 56.6524 66.3419 55.6071 65.9053 54.403C65.6506 53.6984 65.0948 53.2353 64.5292 52.792C62.0978 50.8932 59.673 48.9878 57.2318 47.099C55.4884 45.7526 53.7584 44.3864 51.9655 43.1062C50.5397 42.0874 49.7723 43.3179 48.942 44.1681C48.2804 44.8462 48.6707 45.3457 49.2595 45.7989C53.722 49.2161 58.1778 52.6332 62.6436 56.0437C63.1299 56.4142 63.6823 56.6656 64.1057 56.6557ZM17.536 36.1694C17.536 36.1562 17.536 36.1462 17.536 36.133C19.7921 36.133 22.0514 36.1826 24.3041 36.1132C25.452 36.0768 26.3187 35.521 26.3782 34.2111C26.4378 32.911 25.6339 32.3421 24.5026 32.0907C24.1817 32.0212 23.8476 31.9815 23.5235 31.9815C19.5043 31.9716 15.4851 31.9914 11.4692 31.965C10.0732 31.955 9.26276 32.6001 9.1139 33.9597C8.97497 35.2266 9.86481 36.0999 11.4262 36.1529C13.4639 36.2223 15.5016 36.1694 17.536 36.1694ZM45.2238 24.0721C44.0032 23.9696 43.3879 24.5551 42.9479 25.3821C42.4947 26.2322 43.0604 26.7218 43.6492 27.1651C46.4114 29.2557 49.2 31.31 51.9324 33.437C52.8123 34.1218 53.411 33.9067 54.0329 33.1724C54.9956 32.0377 54.9559 31.1247 53.7617 30.2117C51.2708 28.3096 48.7435 26.4539 46.2195 24.5981C45.8722 24.3467 45.452 24.1945 45.2238 24.0721ZM30.758 41.3662C30.0302 41.75 29.6134 42.3719 29.2198 43.0301C28.7864 43.7546 29.0577 44.2773 29.6564 44.7271C32.4219 46.8112 35.0352 49.0937 37.9132 51.0355C38.8394 51.6607 39.5109 51.7665 40.2552 50.7245C41.0094 49.6693 40.629 49.1069 39.759 48.4321C37.02 46.3084 34.3339 44.1251 31.6214 41.965C31.3667 41.7665 31.0888 41.5945 30.758 41.3662Z" fill="#BD0000"/>
</svg>
