<svg width="65" height="66" viewBox="0 0 65 66" fill="none" xmlns="http://www.w3.org/2000/svg">
<path d="M0.0180741 32.8818C-0.382714 17.1232 11.1347 3.9936 24.9573 0.975738C40.7418 -2.47023 57.2765 5.98641 62.6585 20.7953C66.9196 32.511 65.4882 43.6056 57.3639 53.4792C56.5292 54.4922 56.1194 54.5344 55.2877 53.3918C52.4309 49.4634 48.2784 48.6525 43.7673 49.0323C41.0732 49.2584 38.5661 50.0272 36.538 51.9989C34.9017 53.5908 34.3804 55.5836 34.284 57.7332C34.2026 59.539 34.2689 61.3479 34.2448 63.1569C34.2237 64.8633 33.9223 65.1828 32.2077 65.21C24.6952 65.3245 18.0324 62.9729 12.111 58.3572C4.99327 52.8009 -0.340526 42.9996 0.0180741 32.8818ZM22.1548 47.5309C25.0628 47.5309 27.9708 47.5641 30.8788 47.5189C32.6929 47.4887 33.4131 46.7109 33.4794 44.9231C33.5939 41.8751 31.5779 39.0984 28.1908 37.8111C24.5114 36.4122 20.7024 36.4122 16.9386 37.2775C13.3074 38.1126 10.978 41.2209 11.0563 44.6819C11.1015 46.7441 11.8278 47.5038 13.8859 47.5249C16.6402 47.549 19.3975 47.5279 22.1548 47.5309ZM22.1126 32.5351C26.1627 32.5622 29.2304 29.6831 29.2636 25.8211C29.2967 22.0887 26.2019 19.104 22.2633 19.0678C18.3609 19.0316 15.3203 21.8686 15.2661 25.601C15.2058 29.668 18.0083 32.508 22.1126 32.5351ZM52.2411 38.7035C52.2531 34.6123 49.6525 31.9352 45.6507 31.9261C41.5102 31.9171 38.545 34.6847 38.4877 38.6221C38.4274 42.6499 41.236 45.523 45.2167 45.508C49.3662 45.4899 52.229 42.7162 52.2411 38.7035ZM51.5992 18.5131C51.5811 18.5131 51.563 18.5131 51.545 18.5131C51.545 17.4609 51.6173 16.3997 51.5269 15.3565C51.4124 14.0511 50.7705 12.9356 49.3964 12.7999C47.2086 12.5799 44.9937 12.4985 42.7939 12.5467C41.236 12.5829 40.6122 13.5838 40.8533 15.1184C41.0461 16.3394 41.9562 16.671 42.9657 16.9514C43.3213 17.0509 43.8757 16.87 43.9993 17.3674C44.1138 17.8317 43.6076 18.0126 43.3363 18.2839C40.7508 20.8767 38.1321 23.4363 35.5858 26.0683C34.7751 26.9064 34.3171 28.0822 35.2302 29.0439C36.1523 30.0117 37.2612 29.4961 38.2165 28.8178C38.4606 28.6429 38.7017 28.459 38.9186 28.251C41.3445 25.9236 43.7612 23.5901 46.1871 21.2656C46.5366 20.931 46.8651 20.4034 47.4286 20.5903C47.956 20.7652 47.7721 21.3591 47.8655 21.7781C48.1006 22.8364 48.649 23.5388 49.8303 23.4062C50.9152 23.2826 51.5721 22.6736 51.5962 21.5279C51.6143 20.521 51.5992 19.517 51.5992 18.5131Z" fill="#BD0000"/>
</svg>
