<svg width="66" height="66" viewBox="0 0 66 66" fill="none" xmlns="http://www.w3.org/2000/svg">
<path d="M32.7126 65.4846C14.9962 65.5268 0.533071 51.1018 0.499968 33.3238C0.463855 12.8683 16.844 0.587142 32.2461 0.4997C50.9014 0.394165 65.5692 14.973 65.503 33.4987C65.4338 51.6084 49.7217 66.0183 32.7126 65.4846ZM32.6765 29.1537C32.6765 29.1477 32.6765 29.1387 32.6765 29.1326C38.1415 29.1326 43.6066 29.1326 49.0717 29.1326C49.8029 29.1326 50.5222 29.0301 50.8141 28.2401C51.097 27.4772 50.5583 27.0008 50.0467 26.5968C44.8134 22.4568 39.577 18.3289 34.3316 14.2071C33.2934 13.3899 32.213 13.3628 31.1627 14.195C25.9805 18.3139 20.8014 22.4387 15.6312 26.5757C15.0414 27.0491 14.4245 27.5979 14.7585 28.4783C15.0865 29.3497 15.9171 29.1447 16.5822 29.1447C21.948 29.1628 27.3107 29.1537 32.6765 29.1537ZM32.8841 47.2634C35.2886 47.2634 37.6931 47.2755 40.0976 47.2604C43.6126 47.2363 42.9776 47.4443 43.0047 50.0676C43.0258 52.0848 43.3899 52.3984 45.5808 52.3893C47.8589 52.3803 48.2381 52.1029 48.1929 50.1309C48.1598 48.7198 48.2922 47.586 49.9203 47.0885C50.8412 46.8051 51.094 45.9186 50.9164 44.9718C50.7479 44.0702 50.0708 43.8411 49.2853 43.6752C47.9792 43.4008 46.6882 43.6843 45.3912 43.6813C37.4734 43.6632 29.5587 43.6692 21.641 43.6752C19.9377 43.6752 18.2344 43.6963 16.534 43.7476C15.5289 43.7777 14.9451 44.414 14.8367 45.3517C14.7374 46.2322 15.1798 47.0131 16.0676 47.176C17.6716 47.4684 17.7739 48.5057 17.7438 49.8264C17.6897 52.118 17.9846 52.3743 20.1844 52.4135C22.6612 52.4587 22.917 52.2024 22.938 49.6786C22.9411 49.4284 22.9621 49.1751 22.938 48.9248C22.8147 47.6735 23.4075 47.2363 24.6173 47.2543C27.3709 47.2996 30.1275 47.2664 32.8841 47.2634ZM35.9717 36.508C35.9717 35.5581 35.9477 34.6053 35.9778 33.6555C36.0079 32.7359 35.6798 32.2474 34.6807 32.2806C33.4348 32.3228 32.1829 32.3258 30.937 32.2896C29.9289 32.2594 29.64 32.7751 29.658 33.6827C29.6881 35.2838 29.6701 36.8849 29.6821 38.486C29.6972 40.6238 29.7002 40.6238 31.8609 40.6328C35.9567 40.6479 35.9567 40.6479 35.9717 36.508ZM25.3546 36.4748C25.3546 36.0738 25.3546 35.6727 25.3546 35.2717C25.3546 32.1057 25.1319 31.9308 21.8968 32.2896C21.1143 32.377 20.678 32.6967 20.675 33.4927C20.6659 35.4978 20.672 37.503 20.675 39.5081C20.675 40.1383 20.9067 40.5092 21.6049 40.6298C24.8129 41.1786 25.3576 40.7444 25.3546 37.5301C25.3576 37.1773 25.3576 36.8276 25.3546 36.4748ZM40.5521 36.4476C40.5551 36.4476 40.5551 36.4476 40.5581 36.4476C40.5581 36.7974 40.5581 37.1472 40.5581 37.497C40.5611 40.8982 40.6122 40.9464 43.9707 40.6208C44.0189 40.6147 44.07 40.6147 44.1212 40.6147C44.8555 40.5997 45.2136 40.2197 45.2076 39.487C45.1925 37.5904 45.2557 35.6938 45.0932 33.7942C44.9939 32.6333 44.5124 32.2896 43.3959 32.2866C40.546 32.2836 40.546 32.2353 40.5551 35.0998C40.5521 35.5461 40.5521 35.9954 40.5521 36.4476Z" fill="#BD0000"/>
</svg>
