<svg width="65" height="66" viewBox="0 0 65 66" fill="none" xmlns="http://www.w3.org/2000/svg">
<path d="M64.9909 32.9009C65.3343 49.5637 51.0864 65.3121 32.2918 65.2099C13.871 65.1046 0.452837 50.6344 0.00910998 33.3129C-0.428539 16.223 13.3361 0.182804 32.386 0.209873C50.202 0.236943 65.4285 15.1643 64.9909 32.9009ZM50.7703 20.5571C50.7612 20.5571 50.7551 20.5571 50.746 20.5571C50.746 19.3059 50.7946 18.0547 50.7308 16.8065C50.667 15.5373 50.0348 14.8515 48.6337 14.7492C46.6127 14.6049 44.5946 14.5507 42.5705 14.5868C41.297 14.6109 39.7136 14.1597 38.9933 15.5342C38.2943 16.8727 39.5951 17.8051 40.3062 18.8067C41.2423 20.121 41.139 20.7707 39.7744 21.649C38.6742 22.3558 37.5375 23.0175 36.3735 23.619C30.1309 26.8553 23.4081 28.6239 16.5091 29.824C15.8161 29.9443 14.8922 29.9473 14.95 30.8767C15.0138 31.8782 15.9803 31.8181 16.7279 31.8211C18.8493 31.8331 20.9646 31.791 23.089 31.6015C30.7995 30.9158 38.1089 28.9968 44.7253 24.8913C46.0018 24.1003 47.0533 23.7995 48.1049 25.1981C48.5 25.7214 49.1717 26.0072 49.8768 25.7665C50.6244 25.5109 50.7308 24.8071 50.7582 24.1604C50.8068 22.9603 50.7703 21.7602 50.7703 20.5571ZM42.1906 40.9285C42.1997 40.9285 42.2058 40.9285 42.2149 40.9285C42.2149 43.3828 42.1571 45.8371 42.2331 48.2884C42.2939 50.1833 42.8501 50.6795 44.7222 50.7577C45.7829 50.8029 46.8467 50.7998 47.9074 50.7577C49.7096 50.6856 50.439 50.1111 50.594 48.3756C51.0317 43.4309 50.7946 38.4712 50.7369 33.5205C50.7187 32.0948 49.9376 30.997 48.3602 30.8676C47.2083 30.7744 46.023 30.7564 44.8803 30.9067C42.8501 31.1744 42.2179 31.9685 42.1966 34.0318C42.1754 36.3297 42.1906 38.6276 42.1906 40.9285ZM36.5133 43.5783C36.5163 43.5783 36.5163 43.5783 36.5194 43.5783C36.5194 42.6279 36.4768 41.6744 36.5254 40.727C36.7747 36.1071 35.4435 35.6469 31.1278 35.8905C31.0761 35.8936 31.0275 35.8966 30.9758 35.9026C29.2009 36.0951 28.3378 36.7929 28.28 38.5494C28.1706 41.897 28.198 45.2506 28.2587 48.6012C28.2831 50.0208 29.1492 50.7788 30.6141 50.7878C31.8268 50.7938 33.0425 50.8239 34.2521 50.7788C35.7596 50.7216 36.4525 50.0449 36.4981 48.532C36.5528 46.8808 36.5133 45.2295 36.5133 43.5783ZM22.5997 44.5408C22.5997 43.0369 22.621 41.533 22.5936 40.0322C22.5693 38.8261 21.9402 37.9689 20.7397 37.8035C19.2383 37.5959 17.7126 37.5719 16.2112 37.9208C15.2144 38.1524 14.5518 38.7419 14.5093 39.7705C14.3938 42.6218 14.2904 45.4762 14.2813 48.3305C14.2783 49.6298 15.0107 50.5322 16.3784 50.6825C17.9406 50.851 19.5088 50.863 21.074 50.6284C22.08 50.478 22.5997 49.9216 22.5967 48.905C22.5967 47.4492 22.5997 45.9935 22.5997 44.5408Z" fill="#BD0000"/>
</svg>
