<svg width="65" height="66" viewBox="0 0 65 66" fill="none" xmlns="http://www.w3.org/2000/svg">
<path d="M64.9845 33.006C65.595 50.6829 50.2332 65.5452 32.747 65.5C14.8153 65.4517 0.28365 50.9423 0.00284632 33.2624C-0.287114 14.8617 15.0869 0.509054 32.5242 0.500004C49.9646 0.490955 65.4027 15.0698 64.9845 33.006ZM20.3398 22.6202C20.3001 24.5145 20.9349 26.1766 22.2077 27.5793C25.1348 30.801 28.4312 33.6425 31.7398 36.46C33.333 37.8174 34.7371 37.7269 36.3731 36.3363C37.4139 35.4524 38.415 34.5233 39.3948 33.5762C41.6809 31.3651 44.1654 29.3289 46.0761 26.7709C49.4152 22.3004 47.0497 16.2161 41.6931 15.3141C39.2086 14.8948 37.1911 15.836 35.4788 17.483C34.3555 18.5629 33.446 18.5509 32.4265 17.3774C31.6604 16.4966 30.7173 15.8149 29.5575 15.465C24.8052 14.0291 20.413 17.4317 20.3398 22.6202ZM10.8932 41.7721C10.9176 41.7721 10.945 41.7721 10.9695 41.7721C10.9695 42.9274 10.9511 44.0827 10.9756 45.238C11 46.3994 11.5463 47.1053 12.7825 47.2591C14.2048 47.4371 15.5356 47.9439 16.8267 48.5532C19.3478 49.7417 21.7529 51.1836 24.4145 52.0584C27.4484 53.0538 30.4579 54.0252 33.7817 53.1534C40.0357 51.5124 45.7373 48.698 51.2862 45.5156C51.9943 45.1083 52.6108 44.5684 53.0992 43.9198C53.7432 43.0601 53.966 42.1039 53.4777 41.0903C52.9893 40.0677 52.211 39.4011 51.0267 39.3106C50.2576 39.2502 49.5129 39.3558 48.7895 39.6484C46.1096 40.7374 43.387 41.7178 40.5637 42.3754C39.4466 42.6348 38.8362 43.1838 38.5401 44.2999C37.9724 46.4205 36.4829 47.7568 34.3769 48.3119C30.5555 49.3224 27.3049 47.7297 24.1672 45.8806C23.3676 45.41 23.2638 44.4236 23.6545 43.7298C24.1489 42.852 24.9059 43.4854 25.4919 43.8263C27.2622 44.8549 29.1301 45.6543 31.166 45.9288C32.7073 46.137 34.2487 46.0042 35.3567 44.7132C36.1502 43.7901 35.9488 42.8459 34.8988 42.6287C30.9493 41.8083 27.7414 39.5971 24.5427 37.3559C22.7968 36.1312 21.0723 34.8853 18.8533 34.6169C16.3169 34.3092 13.9728 34.819 11.9614 36.3815C10.3407 37.6424 10.9725 39.5127 10.8932 41.1748C10.884 41.3708 10.8932 41.5699 10.8932 41.7721Z" fill="#BD0000"/>
</svg>
